<svg width="24" height="24" viewBox="0 0 24 24" fill="none" xmlns="http://www.w3.org/2000/svg">
  <circle cx="12" cy="12" r="10" fill="url(#paint0_linear)" />
  <path d="M12 2C6.48 2 2 6.48 2 12C2 17.52 6.48 22 12 22C17.52 22 22 17.52 22 12C22 6.48 17.52 2 12 2ZM12 20C7.58 20 4 16.42 4 12C4 7.58 7.58 4 12 4C16.42 4 20 7.58 20 12C20 16.42 16.42 20 12 20Z" fill="white" />
  <path d="M16 10.8L14.8 9.6L11 13.4L9.2 11.6L8 12.8L11 15.8L16 10.8Z" fill="white" />
  <path d="M11 7H13V9H11V7Z" fill="white" />
  <path d="M7 11H9V13H7V11Z" fill="white" />
  <path d="M15 11H17V13H15V11Z" fill="white" />
  <defs>
    <linearGradient id="paint0_linear" x1="4" y1="4" x2="20" y2="20" gradientUnits="userSpaceOnUse">
      <stop stop-color="#3B82F6" />
      <stop offset="1" stop-color="#8B5CF6" />
    </linearGradient>
  </defs>
</svg>
